<svg width="16" height="16" viewBox="0 0 16 16" fill="none" xmlns="http://www.w3.org/2000/svg">
<path d="M2.57143 3.42857C2.96429 3.42857 3.3006 3.56845 3.58036 3.84821C3.86012 4.12798 4 4.46429 4 4.85714V14.5714C4 14.9643 3.86012 15.3006 3.58036 15.5804C3.3006 15.8601 2.96429 16 2.57143 16H1.42857C1.03571 16 0.699405 15.8601 0.419643 15.5804C0.139881 15.3006 0 14.9643 0 14.5714V4.85714C0 4.46429 0.139881 4.12798 0.419643 3.84821C0.699405 3.56845 1.03571 3.42857 1.42857 3.42857H2.57143ZM14.8571 4.88393C15.2024 5.08631 15.4792 5.3631 15.6875 5.71429C15.8958 6.06548 16 6.44643 16 6.85714V13.7143C16 14.3452 15.7768 14.8839 15.3304 15.3304C14.8839 15.7768 14.3452 16 13.7143 16H6C5.60714 16 5.27083 15.8601 4.99107 15.5804C4.71131 15.3006 4.57143 14.9643 4.57143 14.5714V0.857143C4.57143 0.619048 4.65476 0.416667 4.82143 0.25C4.9881 0.0833333 5.19048 0 5.42857 0H11.4286C11.6667 0 11.9286 0.0595238 12.2143 0.178571C12.5 0.297619 12.7262 0.440476 12.8929 0.607143L14.25 1.96429C14.4167 2.13095 14.5595 2.35714 14.6786 2.64286C14.7976 2.92857 14.8571 3.19048 14.8571 3.42857V4.88393ZM8.28572 13.7143V12.5714C8.28572 12.4881 8.25893 12.4196 8.20536 12.3661C8.15179 12.3125 8.08333 12.2857 8 12.2857H6.85714C6.77381 12.2857 6.70536 12.3125 6.65179 12.3661C6.59821 12.4196 6.57143 12.4881 6.57143 12.5714V13.7143C6.57143 13.7976 6.59821 13.8661 6.65179 13.9196C6.70536 13.9732 6.77381 14 6.85714 14H8C8.08333 14 8.15179 13.9732 8.20536 13.9196C8.25893 13.8661 8.28572 13.7976 8.28572 13.7143ZM8.28572 11.4286V10.2857C8.28572 10.2024 8.25893 10.1339 8.20536 10.0804C8.15179 10.0268 8.08333 10 8 10H6.85714C6.77381 10 6.70536 10.0268 6.65179 10.0804C6.59821 10.1339 6.57143 10.2024 6.57143 10.2857V11.4286C6.57143 11.5119 6.59821 11.5804 6.65179 11.6339C6.70536 11.6875 6.77381 11.7143 6.85714 11.7143H8C8.08333 11.7143 8.15179 11.6875 8.20536 11.6339C8.25893 11.5804 8.28572 11.5119 8.28572 11.4286ZM8.28572 9.14286V8C8.28572 7.91667 8.25893 7.84821 8.20536 7.79464C8.15179 7.74107 8.08333 7.71429 8 7.71429H6.85714C6.77381 7.71429 6.70536 7.74107 6.65179 7.79464C6.59821 7.84821 6.57143 7.91667 6.57143 8V9.14286C6.57143 9.22619 6.59821 9.29464 6.65179 9.34822C6.70536 9.40179 6.77381 9.42857 6.85714 9.42857H8C8.08333 9.42857 8.15179 9.40179 8.20536 9.34822C8.25893 9.29464 8.28572 9.22619 8.28572 9.14286ZM10.5714 13.7143V12.5714C10.5714 12.4881 10.5446 12.4196 10.4911 12.3661C10.4375 12.3125 10.369 12.2857 10.2857 12.2857H9.14286C9.05952 12.2857 8.99107 12.3125 8.9375 12.3661C8.88393 12.4196 8.85714 12.4881 8.85714 12.5714V13.7143C8.85714 13.7976 8.88393 13.8661 8.9375 13.9196C8.99107 13.9732 9.05952 14 9.14286 14H10.2857C10.369 14 10.4375 13.9732 10.4911 13.9196C10.5446 13.8661 10.5714 13.7976 10.5714 13.7143ZM10.5714 11.4286V10.2857C10.5714 10.2024 10.5446 10.1339 10.4911 10.0804C10.4375 10.0268 10.369 10 10.2857 10H9.14286C9.05952 10 8.99107 10.0268 8.9375 10.0804C8.88393 10.1339 8.85714 10.2024 8.85714 10.2857V11.4286C8.85714 11.5119 8.88393 11.5804 8.9375 11.6339C8.99107 11.6875 9.05952 11.7143 9.14286 11.7143H10.2857C10.369 11.7143 10.4375 11.6875 10.4911 11.6339C10.5446 11.5804 10.5714 11.5119 10.5714 11.4286ZM10.5714 9.14286V8C10.5714 7.91667 10.5446 7.84821 10.4911 7.79464C10.4375 7.74107 10.369 7.71429 10.2857 7.71429H9.14286C9.05952 7.71429 8.99107 7.74107 8.9375 7.79464C8.88393 7.84821 8.85714 7.91667 8.85714 8V9.14286C8.85714 9.22619 8.88393 9.29464 8.9375 9.34822C8.99107 9.40179 9.05952 9.42857 9.14286 9.42857H10.2857C10.369 9.42857 10.4375 9.40179 10.4911 9.34822C10.5446 9.29464 10.5714 9.22619 10.5714 9.14286ZM12.8571 13.7143V12.5714C12.8571 12.4881 12.8304 12.4196 12.7768 12.3661C12.7232 12.3125 12.6548 12.2857 12.5714 12.2857H11.4286C11.3452 12.2857 11.2768 12.3125 11.2232 12.3661C11.1696 12.4196 11.1429 12.4881 11.1429 12.5714V13.7143C11.1429 13.7976 11.1696 13.8661 11.2232 13.9196C11.2768 13.9732 11.3452 14 11.4286 14H12.5714C12.6548 14 12.7232 13.9732 12.7768 13.9196C12.8304 13.8661 12.8571 13.7976 12.8571 13.7143ZM12.8571 11.4286V10.2857C12.8571 10.2024 12.8304 10.1339 12.7768 10.0804C12.7232 10.0268 12.6548 10 12.5714 10H11.4286C11.3452 10 11.2768 10.0268 11.2232 10.0804C11.1696 10.1339 11.1429 10.2024 11.1429 10.2857V11.4286C11.1429 11.5119 11.1696 11.5804 11.2232 11.6339C11.2768 11.6875 11.3452 11.7143 11.4286 11.7143H12.5714C12.6548 11.7143 12.7232 11.6875 12.7768 11.6339C12.8304 11.5804 12.8571 11.5119 12.8571 11.4286ZM12.8571 9.14286V8C12.8571 7.91667 12.8304 7.84821 12.7768 7.79464C12.7232 7.74107 12.6548 7.71429 12.5714 7.71429H11.4286C11.3452 7.71429 11.2768 7.74107 11.2232 7.79464C11.1696 7.84821 11.1429 7.91667 11.1429 8V9.14286C11.1429 9.22619 11.1696 9.29464 11.2232 9.34822C11.2768 9.40179 11.3452 9.42857 11.4286 9.42857H12.5714C12.6548 9.42857 12.7232 9.40179 12.7768 9.34822C12.8304 9.29464 12.8571 9.22619 12.8571 9.14286ZM13.7143 5.71429V3.42857H12.2857C12.0476 3.42857 11.8452 3.34524 11.6786 3.17857C11.5119 3.0119 11.4286 2.80952 11.4286 2.57143V1.14286H5.71429V5.71429H13.7143Z" fill="#08324C"/>
</svg>
