<svg width="12" height="17" viewBox="0 0 12 17" fill="none" xmlns="http://www.w3.org/2000/svg">
<path d="M6.00011 4.94961e-10C4.44271 0.00130079 2.9491 0.618843 1.84551 1.71775C0.741922 2.81665 0.118033 4.30762 0.110107 5.865C0.110107 8.2 1.42011 10.155 2.38011 11.58L2.55511 11.84C3.51025 13.2243 4.53489 14.5594 5.62511 15.84L6.00511 16.285L6.38511 15.84C7.47518 14.5592 8.49982 13.2242 9.45511 11.84L9.63011 11.575C10.5851 10.15 11.8951 8.2 11.8951 5.865C11.8872 4.30675 11.2626 2.81503 10.1579 1.71599C9.05326 0.616939 7.55838 -2.0178e-05 6.00011 4.94961e-10ZM6.00011 8.5C5.35139 8.5 4.71723 8.30763 4.17784 7.94722C3.63844 7.58681 3.21804 7.07454 2.96978 6.4752C2.72153 5.87586 2.65657 5.21636 2.78313 4.5801C2.90969 3.94385 3.22208 3.35941 3.6808 2.90069C4.13951 2.44197 4.72395 2.12958 5.36021 2.00302C5.99647 1.87646 6.65597 1.94142 7.25531 2.18968C7.85465 2.43793 8.36692 2.85834 8.72733 3.39773C9.08774 3.93712 9.28011 4.57128 9.28011 5.22C9.28011 6.08991 8.93454 6.92419 8.31942 7.53931C7.7043 8.15443 6.87002 8.5 6.00011 8.5Z" fill="#08324C"/>
</svg>
