<svg xmlns="http://www.w3.org/2000/svg" xmlns:xlink="http://www.w3.org/1999/xlink" width="290" zoomAndPan="magnify" viewBox="0 0 217.5 130.499996" height="174" preserveAspectRatio="xMidYMid meet" version="1.0"><defs><g/><clipPath id="94eb7f6365"><path d="M 110 33 L 139 33 L 139 100.78125 L 110 100.78125 Z M 110 33 " clip-rule="nonzero"/></clipPath><clipPath id="32d2441e32"><path d="M 43 0 L 174.570312 0 L 174.570312 71 L 43 71 Z M 43 0 " clip-rule="nonzero"/></clipPath><clipPath id="f8b3315385"><path d="M 78 33 L 107 33 L 107 100.78125 L 78 100.78125 Z M 78 33 " clip-rule="nonzero"/></clipPath><clipPath id="fbbfdcd54b"><path d="M 78.777344 33.605469 L 141.351562 33.605469 L 141.351562 100.648438 L 78.777344 100.648438 Z M 78.777344 33.605469 " clip-rule="nonzero"/></clipPath><clipPath id="c0c859698e"><path d="M 78.777344 33.605469 L 105 33.605469 L 105 74.363281 L 78.777344 74.363281 Z M 78.777344 33.605469 " clip-rule="nonzero"/></clipPath><clipPath id="e7d4018a37"><path d="M 95.808594 33.605469 L 142.492188 33.605469 L 142.492188 74.363281 L 95.808594 74.363281 Z M 95.808594 33.605469 " clip-rule="nonzero"/></clipPath></defs><g clip-path="url(#94eb7f6365)"><path fill="#13398f" d="M 134.246094 36.527344 L 134.246094 54.722656 L 127 54.722656 L 127 37.777344 L 119.222656 37.777344 L 119.222656 58.980469 L 134.246094 58.980469 L 134.246094 84.179688 L 127 89.261719 L 119.222656 94.707031 L 110.75 100.632812 L 110.75 67.03125 L 119.222656 67.03125 L 119.222656 89.445312 L 127 83.996094 L 127 62.792969 L 110.75 62.792969 L 110.75 33.941406 L 138.738281 33.941406 L 138.738281 36.527344 Z M 134.246094 36.527344 " fill-opacity="1" fill-rule="evenodd"/></g><path fill="#13398f" d="M 74.453125 29.429688 L 143.085938 29.429688 L 143.085938 32.015625 L 74.453125 32.015625 Z M 74.453125 29.429688 " fill-opacity="1" fill-rule="evenodd"/><g clip-path="url(#32d2441e32)"><path fill="#13398f" d="M 44.390625 59.894531 C 52.679688 74.332031 68.308594 74.332031 76.597656 59.894531 C 66.308594 63.820312 54.679688 63.820312 44.390625 59.894531 Z M 78.800781 24.917969 L 106.496094 24.917969 L 106.496094 17.433594 C 97.472656 16.8125 86.871094 19.140625 77.605469 21.78125 C 74.03125 22.789062 68.859375 24.898438 63.628906 26.460938 C 63.703125 26.714844 63.742188 26.972656 63.742188 27.246094 C 63.742188 29.046875 62.292969 30.496094 60.492188 30.496094 C 58.972656 30.496094 57.6875 29.429688 57.339844 28 C 55.945312 28.238281 54.605469 28.386719 53.339844 28.402344 L 52.421875 28.402344 C 50.808594 28.347656 49.34375 28.054688 48.09375 27.449219 C 44.867188 25.871094 42.664062 22.828125 43.691406 18.589844 C 44.351562 15.820312 46.921875 13.839844 49.964844 14.097656 C 53.542969 14.410156 55.101562 19.140625 52.09375 20.808594 C 51.011719 21.398438 49.78125 21.269531 48.460938 20.664062 C 48.351562 25.542969 54.625 24.476562 57.761719 23.6875 C 59.449219 23.265625 61.027344 22.753906 62.546875 22.167969 C 72.5625 18.40625 82.6875 14.425781 93.378906 12.921875 C 97.671875 12.316406 102.054688 12.078125 106.496094 12.0625 L 106.496094 7.898438 C 105.300781 7.144531 104.496094 5.804688 104.496094 4.285156 C 104.496094 1.917969 106.402344 0.0117188 108.769531 0.0117188 C 111.136719 0.0117188 113.042969 1.917969 113.042969 4.285156 C 113.042969 5.804688 112.253906 7.144531 111.042969 7.898438 L 111.042969 12.0625 C 115.480469 12.078125 119.882812 12.316406 124.175781 12.921875 C 134.851562 14.425781 144.976562 18.40625 155.007812 22.167969 C 156.511719 22.753906 158.109375 23.265625 159.777344 23.6875 C 162.914062 24.476562 169.207031 25.542969 169.078125 20.664062 C 167.757812 21.269531 166.546875 21.398438 165.464844 20.808594 C 162.457031 19.140625 163.996094 14.410156 167.589844 14.097656 C 170.636719 13.839844 173.203125 15.820312 173.863281 18.589844 C 174.871094 22.828125 172.671875 25.871094 169.445312 27.449219 C 168.214844 28.054688 166.746094 28.347656 165.132812 28.402344 L 164.214844 28.402344 C 162.949219 28.386719 161.59375 28.238281 160.199219 28 C 159.871094 29.429688 158.585938 30.496094 157.042969 30.496094 C 155.265625 30.496094 153.816406 29.046875 153.816406 27.246094 C 153.816406 26.972656 153.851562 26.714844 153.90625 26.460938 C 148.679688 24.898438 143.507812 22.789062 139.949219 21.78125 C 130.6875 19.140625 120.066406 16.8125 111.042969 17.433594 L 111.042969 24.917969 L 138.738281 24.917969 L 138.738281 27.503906 L 78.800781 27.503906 Z M 173.148438 59.894531 C 164.875 74.332031 149.230469 74.332031 140.957031 59.894531 C 151.230469 63.820312 162.878906 63.820312 173.148438 59.894531 Z M 157.171875 30.496094 L 144.277344 58.667969 C 144.976562 58.886719 145.671875 59.089844 146.371094 59.253906 L 156.054688 38.070312 L 156.054688 60.574219 C 156.804688 60.59375 157.539062 60.59375 158.292969 60.574219 L 158.292969 38.070312 L 167.957031 59.199219 C 168.65625 59.015625 169.332031 58.832031 170.03125 58.613281 Z M 60.382812 30.496094 L 73.257812 58.667969 C 72.582031 58.886719 71.882812 59.089844 71.1875 59.253906 L 61.484375 38.070312 L 61.484375 60.574219 C 60.75 60.59375 60 60.59375 59.265625 60.574219 L 59.265625 38.070312 L 49.597656 59.199219 C 48.902344 59.015625 48.203125 58.832031 47.527344 58.613281 Z M 60.382812 30.496094 " fill-opacity="1" fill-rule="evenodd"/></g><g clip-path="url(#f8b3315385)"><path fill="#13398f" d="M 83.3125 36.527344 L 83.3125 84.179688 L 90.539062 89.261719 L 90.539062 62.792969 L 98.332031 62.792969 L 98.332031 94.707031 L 106.789062 100.632812 L 106.789062 33.941406 L 98.332031 33.941406 L 98.332031 58.980469 L 90.539062 58.980469 L 90.539062 33.941406 L 78.800781 33.941406 L 78.800781 36.527344 Z M 83.3125 36.527344 " fill-opacity="1" fill-rule="evenodd"/></g><g clip-path="url(#fbbfdcd54b)"><path fill="#ffffff" d="M 78.777344 33.605469 L 141.351562 33.605469 L 141.351562 100.582031 L 78.777344 100.582031 Z M 78.777344 33.605469 " fill-opacity="1" fill-rule="nonzero"/></g><g clip-path="url(#c0c859698e)"><path fill="#13398f" d="M 100.589844 72.640625 C 98.625 73.84375 96.441406 74.441406 94.253906 74.710938 L 94.253906 74.277344 C 96.488281 72.910156 102.007812 68.710938 97.855469 62.214844 C 95.179688 58.011719 89.9375 55.605469 85.683594 53.261719 C 81.640625 50.964844 78.804688 46.65625 78.96875 42.121094 C 79.078125 38.683594 81.917969 35.570312 85.195312 34.367188 C 86.125 34.042969 87.050781 33.824219 87.980469 33.660156 L 87.980469 33.988281 C 85.902344 34.863281 82.679688 37.15625 84.261719 42.558594 C 85.195312 45.777344 88.027344 47.796875 90.871094 49.382812 C 94.199219 51.183594 97.421875 52.875 100.144531 55.5 C 105.9375 61.011719 105.386719 69.796875 100.589844 72.640625 Z M 81.042969 62.375 C 80.605469 69.253906 83.9375 72.3125 87.648438 74.003906 L 87.648438 74.496094 C 82.949219 73.789062 79.402344 72.148438 79.402344 72.148438 L 80.28125 62.375 Z M 101.347656 45.777344 C 101.402344 39.445312 98.074219 35.515625 94.578125 33.933594 L 94.578125 33.605469 C 99.277344 34.257812 102.933594 36.058594 102.933594 36.058594 L 102.117188 45.777344 Z M 101.347656 45.777344 " fill-opacity="1" fill-rule="nonzero"/></g><g clip-path="url(#e7d4018a37)"><path fill="#13398f" d="M 120.632812 47.132812 C 120.921875 46.269531 122.140625 46.269531 122.429688 47.132812 L 128.394531 64.839844 C 128.445312 64.980469 128.648438 64.980469 128.699219 64.839844 L 138.242188 36.503906 C 138.371094 36.117188 138.160156 35.707031 137.777344 35.582031 C 137.410156 35.464844 137.085938 35.382812 136.832031 35.324219 C 136.511719 35.253906 136.289062 34.972656 136.289062 34.648438 L 136.289062 34.261719 C 136.289062 33.898438 136.578125 33.605469 136.945312 33.605469 L 141.898438 33.605469 C 142.261719 33.605469 142.550781 33.898438 142.550781 34.261719 L 142.550781 34.648438 C 142.550781 34.972656 142.320312 35.253906 142.007812 35.324219 C 141.699219 35.390625 141.394531 35.480469 141.117188 35.558594 C 140.574219 35.738281 140.152344 36.15625 139.96875 36.695312 L 127.371094 74.117188 C 127.25 74.472656 126.917969 74.710938 126.546875 74.710938 L 126.003906 74.710938 C 125.632812 74.710938 125.296875 74.472656 125.179688 74.117188 L 119.460938 57.136719 C 119.390625 56.953125 119.132812 56.953125 119.066406 57.136719 L 113.347656 74.117188 C 113.226562 74.472656 112.894531 74.710938 112.523438 74.710938 L 111.980469 74.710938 C 111.609375 74.710938 111.273438 74.472656 111.15625 74.117188 L 98.519531 36.660156 C 98.363281 36.183594 97.992188 35.820312 97.523438 35.648438 C 97.070312 35.484375 96.664062 35.382812 96.367188 35.316406 C 96.039062 35.253906 95.816406 34.972656 95.816406 34.648438 L 95.816406 34.261719 C 95.816406 33.898438 96.105469 33.605469 96.46875 33.605469 L 106.117188 33.605469 C 106.484375 33.605469 106.773438 33.898438 106.773438 34.261719 L 106.773438 34.652344 C 106.773438 34.964844 106.558594 35.25 106.253906 35.324219 C 105.875 35.417969 105.515625 35.558594 105.210938 35.703125 C 104.878906 35.859375 104.722656 36.242188 104.839844 36.585938 L 114.355469 64.832031 C 114.410156 64.972656 114.609375 64.972656 114.660156 64.832031 L 118.351562 53.882812 Z M 120.632812 47.132812 " fill-opacity="1" fill-rule="nonzero"/></g><g fill="#13398f" fill-opacity="1"><g transform="translate(1.213555, 107.457986)"><g><path d="M 10.203125 0.3125 C 8.566406 0.3125 6.960938 0.03125 5.390625 -0.53125 C 3.816406 -1.09375 2.390625 -1.957031 1.109375 -3.125 L 3.890625 -6.46875 C 4.867188 -5.664062 5.875 -5.03125 6.90625 -4.5625 C 7.9375 -4.09375 9.066406 -3.859375 10.296875 -3.859375 C 11.273438 -3.859375 12.035156 -4.035156 12.578125 -4.390625 C 13.117188 -4.753906 13.390625 -5.25 13.390625 -5.875 L 13.390625 -5.9375 C 13.390625 -6.25 13.332031 -6.519531 13.21875 -6.75 C 13.101562 -6.988281 12.882812 -7.207031 12.5625 -7.40625 C 12.25 -7.613281 11.8125 -7.816406 11.25 -8.015625 C 10.6875 -8.222656 9.957031 -8.441406 9.0625 -8.671875 C 7.976562 -8.929688 7 -9.222656 6.125 -9.546875 C 5.25 -9.878906 4.503906 -10.285156 3.890625 -10.765625 C 3.273438 -11.242188 2.796875 -11.835938 2.453125 -12.546875 C 2.117188 -13.265625 1.953125 -14.15625 1.953125 -15.21875 L 1.953125 -15.28125 C 1.953125 -16.257812 2.132812 -17.140625 2.5 -17.921875 C 2.875 -18.710938 3.390625 -19.394531 4.046875 -19.96875 C 4.710938 -20.539062 5.503906 -20.976562 6.421875 -21.28125 C 7.347656 -21.59375 8.363281 -21.75 9.46875 -21.75 C 11.039062 -21.75 12.484375 -21.507812 13.796875 -21.03125 C 15.109375 -20.5625 16.316406 -19.890625 17.421875 -19.015625 L 14.96875 -15.46875 C 14.007812 -16.125 13.070312 -16.640625 12.15625 -17.015625 C 11.238281 -17.390625 10.320312 -17.578125 9.40625 -17.578125 C 8.488281 -17.578125 7.796875 -17.394531 7.328125 -17.03125 C 6.867188 -16.675781 6.640625 -16.234375 6.640625 -15.703125 L 6.640625 -15.65625 C 6.640625 -15.300781 6.707031 -14.992188 6.84375 -14.734375 C 6.976562 -14.484375 7.21875 -14.253906 7.5625 -14.046875 C 7.90625 -13.847656 8.378906 -13.65625 8.984375 -13.46875 C 9.585938 -13.289062 10.347656 -13.078125 11.265625 -12.828125 C 12.347656 -12.546875 13.3125 -12.222656 14.15625 -11.859375 C 15.007812 -11.503906 15.726562 -11.078125 16.3125 -10.578125 C 16.894531 -10.078125 17.332031 -9.488281 17.625 -8.8125 C 17.914062 -8.144531 18.0625 -7.34375 18.0625 -6.40625 L 18.0625 -6.34375 C 18.0625 -5.28125 17.867188 -4.332031 17.484375 -3.5 C 17.097656 -2.675781 16.554688 -1.984375 15.859375 -1.421875 C 15.171875 -0.859375 14.34375 -0.425781 13.375 -0.125 C 12.414062 0.164062 11.359375 0.3125 10.203125 0.3125 Z M 10.203125 0.3125 "/></g></g></g><g fill="#13398f" fill-opacity="1"><g transform="translate(21.825152, 107.457986)"><g><path d="M 2.578125 -21.4375 L 18.75 -21.4375 L 18.75 -17.234375 L 7.265625 -17.234375 L 7.265625 -12.890625 L 17.359375 -12.890625 L 17.359375 -8.703125 L 7.265625 -8.703125 L 7.265625 -4.203125 L 18.890625 -4.203125 L 18.890625 0 L 2.578125 0 Z M 2.578125 -21.4375 "/></g></g></g><g fill="#13398f" fill-opacity="1"><g transform="translate(43.355536, 107.457986)"><g><path d="M 9.921875 -21.59375 L 14.265625 -21.59375 L 23.453125 0 L 18.53125 0 L 16.5625 -4.8125 L 7.5 -4.8125 L 5.546875 0 L 0.734375 0 Z M 14.890625 -8.96875 L 12.03125 -15.921875 L 9.1875 -8.96875 Z M 14.890625 -8.96875 "/></g></g></g><g fill="#13398f" fill-opacity="1"><g transform="translate(68.561044, 107.457986)"><g><path d="M 2.578125 -21.4375 L 6.921875 -21.4375 L 16.96875 -8.234375 L 16.96875 -21.4375 L 21.625 -21.4375 L 21.625 0 L 17.609375 0 L 7.234375 -13.625 L 7.234375 0 L 2.578125 0 Z M 2.578125 -21.4375 "/></g></g></g><g fill="#13398f" fill-opacity="1"><g transform="translate(93.766552, 107.457986)"><g/></g></g><g fill="#13398f" fill-opacity="1"><g transform="translate(103.965292, 107.457986)"><g><path d="M 0.921875 -21.4375 L 5.96875 -21.4375 L 10.40625 -6.921875 L 15.21875 -21.5 L 19.265625 -21.5 L 24.078125 -6.921875 L 28.515625 -21.4375 L 33.4375 -21.4375 L 26.125 0.15625 L 22.015625 0.15625 L 17.1875 -13.875 L 12.34375 0.15625 L 8.234375 0.15625 Z M 0.921875 -21.4375 "/></g></g></g><g fill="#13398f" fill-opacity="1"><g transform="translate(139.338636, 107.457986)"><g><path d="M 2.578125 -21.4375 L 7.28125 -21.4375 L 7.28125 -12.953125 L 15.984375 -12.953125 L 15.984375 -21.4375 L 20.703125 -21.4375 L 20.703125 0 L 15.984375 0 L 15.984375 -8.609375 L 7.28125 -8.609375 L 7.28125 0 L 2.578125 0 Z M 2.578125 -21.4375 "/></g></g></g><g fill="#13398f" fill-opacity="1"><g transform="translate(163.625358, 107.457986)"><g><path d="M 2.78125 -21.4375 L 7.5 -21.4375 L 7.5 0 L 2.78125 0 Z M 2.78125 -21.4375 "/></g></g></g><g fill="#13398f" fill-opacity="1"><g transform="translate(174.926641, 107.457986)"><g><path d="M 7.5625 -17.09375 L 1.046875 -17.09375 L 1.046875 -21.4375 L 18.796875 -21.4375 L 18.796875 -17.09375 L 12.28125 -17.09375 L 12.28125 0 L 7.5625 0 Z M 7.5625 -17.09375 "/></g></g></g><g fill="#13398f" fill-opacity="1"><g transform="translate(195.783249, 107.457986)"><g><path d="M 2.578125 -21.4375 L 18.75 -21.4375 L 18.75 -17.234375 L 7.265625 -17.234375 L 7.265625 -12.890625 L 17.359375 -12.890625 L 17.359375 -8.703125 L 7.265625 -8.703125 L 7.265625 -4.203125 L 18.890625 -4.203125 L 18.890625 0 L 2.578125 0 Z M 2.578125 -21.4375 "/></g></g></g><g fill="#13398f" fill-opacity="1"><g transform="translate(52.411503, 126.09077)"><g><path d="M 6.3125 -1.265625 C 5.894531 -0.816406 5.445312 -0.472656 4.96875 -0.234375 C 4.5 0.00390625 3.972656 0.125 3.390625 0.125 C 2.984375 0.125 2.609375 0.0664062 2.265625 -0.046875 C 1.921875 -0.171875 1.625 -0.34375 1.375 -0.5625 C 1.125 -0.78125 0.925781 -1.039062 0.78125 -1.34375 C 0.644531 -1.65625 0.578125 -2 0.578125 -2.375 L 0.578125 -2.40625 C 0.578125 -3 0.765625 -3.503906 1.140625 -3.921875 C 1.515625 -4.347656 2.046875 -4.703125 2.734375 -4.984375 C 2.421875 -5.335938 2.191406 -5.660156 2.046875 -5.953125 C 1.910156 -6.253906 1.84375 -6.582031 1.84375 -6.9375 L 1.84375 -6.96875 C 1.84375 -7.257812 1.898438 -7.535156 2.015625 -7.796875 C 2.128906 -8.054688 2.285156 -8.28125 2.484375 -8.46875 C 2.691406 -8.65625 2.9375 -8.804688 3.21875 -8.921875 C 3.507812 -9.035156 3.835938 -9.09375 4.203125 -9.09375 C 4.515625 -9.09375 4.800781 -9.035156 5.0625 -8.921875 C 5.332031 -8.816406 5.5625 -8.671875 5.75 -8.484375 C 5.9375 -8.304688 6.085938 -8.097656 6.203125 -7.859375 C 6.316406 -7.617188 6.375 -7.359375 6.375 -7.078125 L 6.375 -7.046875 C 6.375 -6.472656 6.1875 -6 5.8125 -5.625 C 5.4375 -5.25 4.921875 -4.945312 4.265625 -4.71875 L 6.3125 -2.640625 C 6.5 -2.929688 6.679688 -3.242188 6.859375 -3.578125 C 7.046875 -3.910156 7.21875 -4.265625 7.375 -4.640625 L 8.203125 -4.25 C 8.015625 -3.820312 7.816406 -3.421875 7.609375 -3.046875 C 7.398438 -2.671875 7.171875 -2.320312 6.921875 -2 L 8.46875 -0.40625 L 7.703125 0.171875 Z M 3.703125 -5.296875 C 4.273438 -5.492188 4.703125 -5.726562 4.984375 -6 C 5.273438 -6.28125 5.421875 -6.613281 5.421875 -7 L 5.421875 -7.015625 C 5.421875 -7.378906 5.300781 -7.675781 5.0625 -7.90625 C 4.820312 -8.144531 4.519531 -8.265625 4.15625 -8.265625 C 3.75 -8.265625 3.421875 -8.140625 3.171875 -7.890625 C 2.929688 -7.640625 2.8125 -7.332031 2.8125 -6.96875 L 2.8125 -6.9375 C 2.8125 -6.8125 2.820312 -6.6875 2.84375 -6.5625 C 2.875 -6.445312 2.925781 -6.320312 3 -6.1875 C 3.070312 -6.0625 3.164062 -5.925781 3.28125 -5.78125 C 3.394531 -5.632812 3.535156 -5.472656 3.703125 -5.296875 Z M 3.453125 -0.734375 C 3.878906 -0.734375 4.273438 -0.835938 4.640625 -1.046875 C 5.015625 -1.253906 5.363281 -1.535156 5.6875 -1.890625 L 3.3125 -4.359375 C 2.707031 -4.128906 2.269531 -3.847656 2 -3.515625 C 1.726562 -3.179688 1.59375 -2.820312 1.59375 -2.4375 L 1.59375 -2.40625 C 1.59375 -2.175781 1.632812 -1.957031 1.71875 -1.75 C 1.8125 -1.539062 1.941406 -1.359375 2.109375 -1.203125 C 2.273438 -1.054688 2.472656 -0.941406 2.703125 -0.859375 C 2.929688 -0.773438 3.179688 -0.734375 3.453125 -0.734375 Z M 3.453125 -0.734375 "/></g></g></g><g fill="#13398f" fill-opacity="1"><g transform="translate(62.109162, 126.09077)"><g/></g></g><g fill="#13398f" fill-opacity="1"><g transform="translate(66.753896, 126.09077)"><g><path d="M 4.5625 -9 L 5.515625 -9 L 9.59375 0 L 8.5 0 L 7.453125 -2.359375 L 2.59375 -2.359375 L 1.53125 0 L 0.5 0 Z M 7.0625 -3.265625 L 5.03125 -7.828125 L 2.984375 -3.265625 Z M 7.0625 -3.265625 "/></g></g></g><g fill="#13398f" fill-opacity="1"><g transform="translate(77.650992, 126.09077)"><g><path d="M 4.328125 0.125 C 3.609375 0.125 2.953125 0.0078125 2.359375 -0.21875 C 1.773438 -0.457031 1.210938 -0.816406 0.671875 -1.296875 L 1.296875 -2.046875 C 1.765625 -1.617188 2.238281 -1.300781 2.71875 -1.09375 C 3.195312 -0.882812 3.742188 -0.78125 4.359375 -0.78125 C 4.960938 -0.78125 5.445312 -0.921875 5.8125 -1.203125 C 6.175781 -1.492188 6.359375 -1.859375 6.359375 -2.296875 L 6.359375 -2.328125 C 6.359375 -2.523438 6.320312 -2.707031 6.25 -2.875 C 6.1875 -3.039062 6.066406 -3.191406 5.890625 -3.328125 C 5.722656 -3.460938 5.488281 -3.585938 5.1875 -3.703125 C 4.882812 -3.816406 4.5 -3.921875 4.03125 -4.015625 C 3.519531 -4.128906 3.070312 -4.257812 2.6875 -4.40625 C 2.3125 -4.550781 2 -4.722656 1.75 -4.921875 C 1.507812 -5.128906 1.328125 -5.367188 1.203125 -5.640625 C 1.085938 -5.910156 1.03125 -6.226562 1.03125 -6.59375 L 1.03125 -6.625 C 1.03125 -6.976562 1.101562 -7.300781 1.25 -7.59375 C 1.394531 -7.894531 1.597656 -8.148438 1.859375 -8.359375 C 2.128906 -8.578125 2.441406 -8.75 2.796875 -8.875 C 3.148438 -9 3.539062 -9.0625 3.96875 -9.0625 C 4.625 -9.0625 5.195312 -8.96875 5.6875 -8.78125 C 6.175781 -8.601562 6.648438 -8.332031 7.109375 -7.96875 L 6.515625 -7.1875 C 6.097656 -7.53125 5.679688 -7.773438 5.265625 -7.921875 C 4.847656 -8.078125 4.40625 -8.15625 3.9375 -8.15625 C 3.351562 -8.15625 2.890625 -8.015625 2.546875 -7.734375 C 2.210938 -7.460938 2.046875 -7.125 2.046875 -6.71875 L 2.046875 -6.6875 C 2.046875 -6.476562 2.078125 -6.289062 2.140625 -6.125 C 2.210938 -5.957031 2.335938 -5.800781 2.515625 -5.65625 C 2.691406 -5.519531 2.9375 -5.394531 3.25 -5.28125 C 3.570312 -5.164062 3.976562 -5.054688 4.46875 -4.953125 C 5.46875 -4.734375 6.203125 -4.425781 6.671875 -4.03125 C 7.140625 -3.644531 7.375 -3.109375 7.375 -2.421875 L 7.375 -2.40625 C 7.375 -2.019531 7.296875 -1.671875 7.140625 -1.359375 C 6.992188 -1.046875 6.785156 -0.78125 6.515625 -0.5625 C 6.242188 -0.34375 5.921875 -0.171875 5.546875 -0.046875 C 5.171875 0.0664062 4.765625 0.125 4.328125 0.125 Z M 4.328125 0.125 "/></g></g></g><g fill="#13398f" fill-opacity="1"><g transform="translate(86.6341, 126.09077)"><g><path d="M 4.328125 0.125 C 3.609375 0.125 2.953125 0.0078125 2.359375 -0.21875 C 1.773438 -0.457031 1.210938 -0.816406 0.671875 -1.296875 L 1.296875 -2.046875 C 1.765625 -1.617188 2.238281 -1.300781 2.71875 -1.09375 C 3.195312 -0.882812 3.742188 -0.78125 4.359375 -0.78125 C 4.960938 -0.78125 5.445312 -0.921875 5.8125 -1.203125 C 6.175781 -1.492188 6.359375 -1.859375 6.359375 -2.296875 L 6.359375 -2.328125 C 6.359375 -2.523438 6.320312 -2.707031 6.25 -2.875 C 6.1875 -3.039062 6.066406 -3.191406 5.890625 -3.328125 C 5.722656 -3.460938 5.488281 -3.585938 5.1875 -3.703125 C 4.882812 -3.816406 4.5 -3.921875 4.03125 -4.015625 C 3.519531 -4.128906 3.070312 -4.257812 2.6875 -4.40625 C 2.3125 -4.550781 2 -4.722656 1.75 -4.921875 C 1.507812 -5.128906 1.328125 -5.367188 1.203125 -5.640625 C 1.085938 -5.910156 1.03125 -6.226562 1.03125 -6.59375 L 1.03125 -6.625 C 1.03125 -6.976562 1.101562 -7.300781 1.25 -7.59375 C 1.394531 -7.894531 1.597656 -8.148438 1.859375 -8.359375 C 2.128906 -8.578125 2.441406 -8.75 2.796875 -8.875 C 3.148438 -9 3.539062 -9.0625 3.96875 -9.0625 C 4.625 -9.0625 5.195312 -8.96875 5.6875 -8.78125 C 6.175781 -8.601562 6.648438 -8.332031 7.109375 -7.96875 L 6.515625 -7.1875 C 6.097656 -7.53125 5.679688 -7.773438 5.265625 -7.921875 C 4.847656 -8.078125 4.40625 -8.15625 3.9375 -8.15625 C 3.351562 -8.15625 2.890625 -8.015625 2.546875 -7.734375 C 2.210938 -7.460938 2.046875 -7.125 2.046875 -6.71875 L 2.046875 -6.6875 C 2.046875 -6.476562 2.078125 -6.289062 2.140625 -6.125 C 2.210938 -5.957031 2.335938 -5.800781 2.515625 -5.65625 C 2.691406 -5.519531 2.9375 -5.394531 3.25 -5.28125 C 3.570312 -5.164062 3.976562 -5.054688 4.46875 -4.953125 C 5.46875 -4.734375 6.203125 -4.425781 6.671875 -4.03125 C 7.140625 -3.644531 7.375 -3.109375 7.375 -2.421875 L 7.375 -2.40625 C 7.375 -2.019531 7.296875 -1.671875 7.140625 -1.359375 C 6.992188 -1.046875 6.785156 -0.78125 6.515625 -0.5625 C 6.242188 -0.34375 5.921875 -0.171875 5.546875 -0.046875 C 5.171875 0.0664062 4.765625 0.125 4.328125 0.125 Z M 4.328125 0.125 "/></g></g></g><g fill="#13398f" fill-opacity="1"><g transform="translate(95.617207, 126.09077)"><g><path d="M 5.40625 0.15625 C 4.726562 0.15625 4.109375 0.03125 3.546875 -0.21875 C 2.992188 -0.46875 2.515625 -0.800781 2.109375 -1.21875 C 1.710938 -1.632812 1.40625 -2.117188 1.1875 -2.671875 C 0.976562 -3.234375 0.875 -3.820312 0.875 -4.4375 L 0.875 -4.46875 C 0.875 -5.082031 0.984375 -5.671875 1.203125 -6.234375 C 1.421875 -6.796875 1.726562 -7.285156 2.125 -7.703125 C 2.53125 -8.128906 3.015625 -8.46875 3.578125 -8.71875 C 4.140625 -8.96875 4.757812 -9.09375 5.4375 -9.09375 C 6.113281 -9.09375 6.726562 -8.96875 7.28125 -8.71875 C 7.84375 -8.46875 8.320312 -8.128906 8.71875 -7.703125 C 9.125 -7.285156 9.4375 -6.796875 9.65625 -6.234375 C 9.875 -5.679688 9.984375 -5.101562 9.984375 -4.5 L 9.984375 -4.46875 C 9.984375 -3.851562 9.867188 -3.265625 9.640625 -2.703125 C 9.421875 -2.140625 9.113281 -1.644531 8.71875 -1.21875 C 8.320312 -0.800781 7.84375 -0.46875 7.28125 -0.21875 C 6.71875 0.03125 6.09375 0.15625 5.40625 0.15625 Z M 5.4375 -0.78125 C 5.945312 -0.78125 6.414062 -0.875 6.84375 -1.0625 C 7.28125 -1.257812 7.648438 -1.519531 7.953125 -1.84375 C 8.253906 -2.175781 8.492188 -2.5625 8.671875 -3 C 8.847656 -3.445312 8.9375 -3.925781 8.9375 -4.4375 L 8.9375 -4.46875 C 8.9375 -4.976562 8.847656 -5.457031 8.671875 -5.90625 C 8.492188 -6.351562 8.25 -6.738281 7.9375 -7.0625 C 7.625 -7.394531 7.25 -7.660156 6.8125 -7.859375 C 6.382812 -8.054688 5.914062 -8.15625 5.40625 -8.15625 C 4.894531 -8.15625 4.425781 -8.054688 4 -7.859375 C 3.570312 -7.671875 3.203125 -7.410156 2.890625 -7.078125 C 2.585938 -6.753906 2.347656 -6.367188 2.171875 -5.921875 C 2.003906 -5.484375 1.921875 -5.007812 1.921875 -4.5 L 1.921875 -4.46875 C 1.921875 -3.957031 2.003906 -3.476562 2.171875 -3.03125 C 2.347656 -2.582031 2.59375 -2.191406 2.90625 -1.859375 C 3.226562 -1.523438 3.601562 -1.257812 4.03125 -1.0625 C 4.457031 -0.875 4.925781 -0.78125 5.4375 -0.78125 Z M 5.4375 -0.78125 "/></g></g></g><g fill="#13398f" fill-opacity="1"><g transform="translate(107.279897, 126.09077)"><g><path d="M 5.34375 0.15625 C 4.695312 0.15625 4.101562 0.0351562 3.5625 -0.203125 C 3.019531 -0.441406 2.546875 -0.765625 2.140625 -1.171875 C 1.742188 -1.585938 1.429688 -2.078125 1.203125 -2.640625 C 0.984375 -3.203125 0.875 -3.800781 0.875 -4.4375 L 0.875 -4.46875 C 0.875 -5.09375 0.984375 -5.6875 1.203125 -6.25 C 1.429688 -6.8125 1.742188 -7.300781 2.140625 -7.71875 C 2.546875 -8.144531 3.023438 -8.476562 3.578125 -8.71875 C 4.128906 -8.96875 4.734375 -9.09375 5.390625 -9.09375 C 5.796875 -9.09375 6.160156 -9.054688 6.484375 -8.984375 C 6.816406 -8.921875 7.125 -8.828125 7.40625 -8.703125 C 7.6875 -8.578125 7.945312 -8.425781 8.1875 -8.25 C 8.425781 -8.070312 8.65625 -7.878906 8.875 -7.671875 L 8.1875 -6.9375 C 7.800781 -7.289062 7.390625 -7.582031 6.953125 -7.8125 C 6.515625 -8.039062 5.988281 -8.15625 5.375 -8.15625 C 4.882812 -8.15625 4.425781 -8.0625 4 -7.875 C 3.582031 -7.6875 3.21875 -7.425781 2.90625 -7.09375 C 2.59375 -6.757812 2.347656 -6.367188 2.171875 -5.921875 C 2.003906 -5.484375 1.921875 -5.007812 1.921875 -4.5 L 1.921875 -4.46875 C 1.921875 -3.945312 2.003906 -3.460938 2.171875 -3.015625 C 2.347656 -2.566406 2.59375 -2.175781 2.90625 -1.84375 C 3.21875 -1.519531 3.582031 -1.257812 4 -1.0625 C 4.425781 -0.875 4.882812 -0.78125 5.375 -0.78125 C 5.988281 -0.78125 6.515625 -0.890625 6.953125 -1.109375 C 7.398438 -1.335938 7.835938 -1.65625 8.265625 -2.0625 L 8.921875 -1.421875 C 8.691406 -1.179688 8.453125 -0.960938 8.203125 -0.765625 C 7.953125 -0.578125 7.679688 -0.414062 7.390625 -0.28125 C 7.097656 -0.144531 6.785156 -0.0390625 6.453125 0.03125 C 6.128906 0.113281 5.757812 0.15625 5.34375 0.15625 Z M 5.34375 0.15625 "/></g></g></g><g fill="#13398f" fill-opacity="1"><g transform="translate(117.564511, 126.09077)"><g><path d="M 1.359375 -8.9375 L 2.359375 -8.9375 L 2.359375 0 L 1.359375 0 Z M 1.359375 -8.9375 "/></g></g></g><g fill="#13398f" fill-opacity="1"><g transform="translate(122.09441, 126.09077)"><g><path d="M 4.5625 -9 L 5.515625 -9 L 9.59375 0 L 8.5 0 L 7.453125 -2.359375 L 2.59375 -2.359375 L 1.53125 0 L 0.5 0 Z M 7.0625 -3.265625 L 5.03125 -7.828125 L 2.984375 -3.265625 Z M 7.0625 -3.265625 "/></g></g></g><g fill="#13398f" fill-opacity="1"><g transform="translate(132.991509, 126.09077)"><g><path d="M 3.59375 -8 L 0.578125 -8 L 0.578125 -8.9375 L 7.609375 -8.9375 L 7.609375 -8 L 4.59375 -8 L 4.59375 0 L 3.59375 0 Z M 3.59375 -8 "/></g></g></g><g fill="#13398f" fill-opacity="1"><g transform="translate(141.987374, 126.09077)"><g><path d="M 1.265625 -8.9375 L 7.71875 -8.9375 L 7.71875 -8.015625 L 2.265625 -8.015625 L 2.265625 -4.96875 L 7.15625 -4.96875 L 7.15625 -4.046875 L 2.265625 -4.046875 L 2.265625 -0.921875 L 7.78125 -0.921875 L 7.78125 0 L 1.265625 0 Z M 1.265625 -8.9375 "/></g></g></g><g fill="#13398f" fill-opacity="1"><g transform="translate(151.353286, 126.09077)"><g><path d="M 4.328125 0.125 C 3.609375 0.125 2.953125 0.0078125 2.359375 -0.21875 C 1.773438 -0.457031 1.210938 -0.816406 0.671875 -1.296875 L 1.296875 -2.046875 C 1.765625 -1.617188 2.238281 -1.300781 2.71875 -1.09375 C 3.195312 -0.882812 3.742188 -0.78125 4.359375 -0.78125 C 4.960938 -0.78125 5.445312 -0.921875 5.8125 -1.203125 C 6.175781 -1.492188 6.359375 -1.859375 6.359375 -2.296875 L 6.359375 -2.328125 C 6.359375 -2.523438 6.320312 -2.707031 6.25 -2.875 C 6.1875 -3.039062 6.066406 -3.191406 5.890625 -3.328125 C 5.722656 -3.460938 5.488281 -3.585938 5.1875 -3.703125 C 4.882812 -3.816406 4.5 -3.921875 4.03125 -4.015625 C 3.519531 -4.128906 3.070312 -4.257812 2.6875 -4.40625 C 2.3125 -4.550781 2 -4.722656 1.75 -4.921875 C 1.507812 -5.128906 1.328125 -5.367188 1.203125 -5.640625 C 1.085938 -5.910156 1.03125 -6.226562 1.03125 -6.59375 L 1.03125 -6.625 C 1.03125 -6.976562 1.101562 -7.300781 1.25 -7.59375 C 1.394531 -7.894531 1.597656 -8.148438 1.859375 -8.359375 C 2.128906 -8.578125 2.441406 -8.75 2.796875 -8.875 C 3.148438 -9 3.539062 -9.0625 3.96875 -9.0625 C 4.625 -9.0625 5.195312 -8.96875 5.6875 -8.78125 C 6.175781 -8.601562 6.648438 -8.332031 7.109375 -7.96875 L 6.515625 -7.1875 C 6.097656 -7.53125 5.679688 -7.773438 5.265625 -7.921875 C 4.847656 -8.078125 4.40625 -8.15625 3.9375 -8.15625 C 3.351562 -8.15625 2.890625 -8.015625 2.546875 -7.734375 C 2.210938 -7.460938 2.046875 -7.125 2.046875 -6.71875 L 2.046875 -6.6875 C 2.046875 -6.476562 2.078125 -6.289062 2.140625 -6.125 C 2.210938 -5.957031 2.335938 -5.800781 2.515625 -5.65625 C 2.691406 -5.519531 2.9375 -5.394531 3.25 -5.28125 C 3.570312 -5.164062 3.976562 -5.054688 4.46875 -4.953125 C 5.46875 -4.734375 6.203125 -4.425781 6.671875 -4.03125 C 7.140625 -3.644531 7.375 -3.109375 7.375 -2.421875 L 7.375 -2.40625 C 7.375 -2.019531 7.296875 -1.671875 7.140625 -1.359375 C 6.992188 -1.046875 6.785156 -0.78125 6.515625 -0.5625 C 6.242188 -0.34375 5.921875 -0.171875 5.546875 -0.046875 C 5.171875 0.0664062 4.765625 0.125 4.328125 0.125 Z M 4.328125 0.125 "/></g></g></g></svg>