<?xml version="1.0" encoding="utf-8"?>
<!-- Generator: Adobe Illustrator 24.1.2, SVG Export Plug-In . SVG Version: 6.00 Build 0)  -->
<svg version="1.1" id="Layer_1" xmlns="http://www.w3.org/2000/svg" xmlns:xlink="http://www.w3.org/1999/xlink" x="0px" y="0px"
	 viewBox="0 0 107.8 42.5" style="enable-background:new 0 0 107.8 42.5;" xml:space="preserve">
<style type="text/css">
	.st0{fill:#1D8CE0;}
</style>
<g>
	<path class="st0" d="M8.7,5.8L6.3,19.3H3.5L5.9,5.8H1.2l0.4-2.4h12.2l-0.4,2.4H8.7z"/>
	<path class="st0" d="M19.5,19.3l1-5.9c0-0.2,0.1-0.4,0.1-0.5s0-0.4,0-0.5c0-0.5-0.1-0.9-0.4-1.3s-0.7-0.6-1.4-0.6
		c-0.4,0-0.8,0.1-1.2,0.2c-0.3,0.2-0.6,0.4-0.9,0.7c-0.2,0.3-0.5,0.6-0.6,1c-0.2,0.4-0.3,0.7-0.3,1.1l-1,5.9h-2.6l3-17h2.7l-1.4,7.7
		h0c0.3-0.5,0.7-0.9,1.3-1.3c0.6-0.4,1.2-0.6,2-0.6c0.6,0,1.1,0.1,1.6,0.3c0.4,0.2,0.8,0.4,1.1,0.7c0.3,0.3,0.5,0.7,0.7,1.1
		s0.2,0.8,0.2,1.3c0,0.4,0,0.7-0.1,1l-1.2,6.7C22.1,19.3,19.5,19.3,19.5,19.3z"/>
	<path class="st0" d="M28,14.8c0,0.1,0,0.2,0,0.2c0,0.4,0.1,0.7,0.2,1s0.3,0.6,0.6,0.8c0.3,0.2,0.6,0.4,0.9,0.5
		c0.3,0.1,0.7,0.2,1.1,0.2c0.7,0,1.3-0.1,1.8-0.4c0.5-0.3,0.9-0.6,1.3-1l1.5,1.4c-1.3,1.4-3,2.2-4.9,2.2c-0.7,0-1.4-0.1-2-0.3
		c-0.6-0.2-1.1-0.5-1.6-0.9c-0.5-0.4-0.8-0.9-1.1-1.5c-0.3-0.6-0.4-1.3-0.4-2c0-0.9,0.2-1.8,0.5-2.6c0.3-0.8,0.8-1.5,1.3-2.1
		c0.6-0.6,1.2-1.1,2-1.4c0.8-0.3,1.6-0.5,2.5-0.5c0.6,0,1.2,0.1,1.8,0.3c0.5,0.2,1,0.5,1.4,0.8s0.7,0.8,0.9,1.4s0.3,1.2,0.3,1.9
		c0,0.2,0,0.6-0.1,1c0,0.4-0.1,0.8-0.2,1.2L28,14.8L28,14.8z M33.9,12.9c0-0.1,0-0.2,0-0.3c0-0.1,0-0.2,0-0.3c0-0.6-0.2-1.1-0.6-1.5
		c-0.4-0.4-1-0.6-1.7-0.6c-0.5,0-0.9,0.1-1.3,0.2s-0.7,0.4-1,0.6s-0.5,0.6-0.7,0.9c-0.2,0.3-0.3,0.6-0.4,0.9H33.9z"/>
	<path class="st0" d="M57.7,16.8c-0.3,0.4-0.7,0.8-1.1,1.1c-0.4,0.4-0.9,0.7-1.4,0.9c-0.5,0.3-1.1,0.5-1.7,0.6
		c-0.6,0.1-1.3,0.2-2.1,0.2c-1.1,0-2-0.2-2.9-0.5c-0.9-0.3-1.6-0.8-2.2-1.4s-1.1-1.3-1.5-2.2c-0.3-0.8-0.5-1.8-0.5-2.8
		c0-1.4,0.2-2.7,0.7-3.9s1.1-2.2,2-3.1s1.8-1.6,3-2.1C51.1,3.3,52.4,3,53.7,3c0.6,0,1.2,0.1,1.7,0.2c0.5,0.1,1.1,0.3,1.5,0.5
		s0.9,0.5,1.3,0.8c0.4,0.3,0.7,0.6,0.9,1l-2.2,1.6c-0.1-0.2-0.3-0.4-0.5-0.6c-0.2-0.2-0.4-0.4-0.7-0.6c-0.3-0.2-0.6-0.3-1-0.4
		S54,5.4,53.6,5.4c-0.9,0-1.8,0.2-2.6,0.6c-0.8,0.4-1.5,0.9-2,1.6c-0.6,0.7-1,1.4-1.3,2.3c-0.3,0.9-0.5,1.7-0.5,2.6
		c0,0.7,0.1,1.3,0.3,1.9c0.2,0.6,0.5,1.1,0.9,1.5s0.9,0.8,1.4,1c0.6,0.3,1.2,0.4,2,0.4c0.8,0,1.6-0.2,2.3-0.5
		c0.7-0.3,1.4-0.8,1.9-1.6L57.7,16.8z"/>
	<path class="st0" d="M63.1,10.3c0.4-0.6,0.8-1.1,1.3-1.5c0.5-0.4,1.1-0.6,1.8-0.6c0.1,0,0.2,0,0.3,0c0.1,0,0.2,0,0.3,0.1l-0.4,2.5
		c-0.2,0-0.3-0.1-0.4-0.1c-0.1,0-0.3,0-0.4,0c-0.6,0-1.1,0.1-1.5,0.3c-0.4,0.2-0.7,0.5-0.9,0.8c-0.2,0.3-0.4,0.6-0.5,1
		s-0.2,0.6-0.2,0.8l-1,5.8H59l1.5-8.5c0.1-0.3,0.1-0.7,0.2-1.1s0.1-0.9,0.1-1.2h2.5c0,0.1,0,0.2,0,0.3c0,0.1,0,0.3-0.1,0.5
		s0,0.4-0.1,0.5C63.1,10.1,63.1,10.2,63.1,10.3L63.1,10.3L63.1,10.3z"/>
	<path class="st0" d="M69.1,14.8c0,0.1,0,0.2,0,0.2c0,0.4,0.1,0.7,0.2,1s0.3,0.6,0.6,0.8c0.3,0.2,0.6,0.4,0.9,0.5
		c0.3,0.1,0.7,0.2,1.1,0.2c0.7,0,1.3-0.1,1.8-0.4c0.5-0.3,0.9-0.6,1.3-1l1.5,1.4c-1.3,1.4-3,2.2-4.9,2.2c-0.7,0-1.4-0.1-2-0.3
		c-0.6-0.2-1.1-0.5-1.6-0.9c-0.5-0.4-0.8-0.9-1.1-1.5c-0.3-0.6-0.4-1.3-0.4-2c0-0.9,0.2-1.8,0.5-2.6s0.8-1.5,1.3-2.1
		c0.6-0.6,1.2-1.1,2-1.4c0.8-0.3,1.6-0.5,2.5-0.5c0.6,0,1.2,0.1,1.8,0.3c0.5,0.2,1,0.5,1.4,0.8s0.7,0.8,0.9,1.4s0.3,1.2,0.3,1.9
		c0,0.2,0,0.6-0.1,1c0,0.4-0.1,0.8-0.2,1.2L69.1,14.8L69.1,14.8z M74.9,12.9c0-0.1,0-0.2,0-0.3c0-0.1,0-0.2,0-0.3
		c0-0.6-0.2-1.1-0.6-1.5c-0.4-0.4-1-0.6-1.7-0.6c-0.5,0-0.9,0.1-1.3,0.2s-0.7,0.4-1,0.6s-0.5,0.6-0.7,0.9c-0.2,0.3-0.3,0.6-0.4,0.9
		H74.9z"/>
	<path class="st0" d="M90.3,2.3H93l-3,17h-2.5l0.3-1.7h-0.1c-0.4,0.6-1,1.1-1.7,1.5c-0.7,0.3-1.4,0.5-2.2,0.5
		c-0.7,0-1.3-0.1-1.9-0.3c-0.6-0.2-1-0.5-1.4-1s-0.7-0.9-0.9-1.5c-0.2-0.6-0.3-1.2-0.3-1.9c0-0.9,0.1-1.8,0.4-2.6s0.7-1.5,1.2-2.1
		c0.5-0.6,1.2-1.1,1.9-1.4s1.5-0.5,2.4-0.5c1,0,1.8,0.2,2.4,0.5s1.1,0.9,1.4,1.5h0L90.3,2.3z M81.9,14.6c0,0.8,0.2,1.5,0.7,2
		c0.5,0.5,1.1,0.8,2,0.8c0.5,0,1-0.1,1.5-0.3c0.5-0.2,0.9-0.5,1.2-0.9c0.3-0.4,0.6-0.8,0.8-1.4c0.2-0.5,0.3-1.1,0.3-1.6
		c0-0.8-0.2-1.5-0.7-2c-0.5-0.5-1.2-0.8-2-0.8c-0.6,0-1.1,0.1-1.5,0.3c-0.5,0.2-0.8,0.5-1.2,0.9c-0.3,0.4-0.6,0.8-0.7,1.3
		C82,13.5,81.9,14.1,81.9,14.6z"/>
	<path class="st0" d="M93.4,19.3l1.9-10.8h2.7L96,19.3H93.4z M98.8,4.8c0,0.4-0.2,0.8-0.5,1.1c-0.3,0.3-0.7,0.5-1.1,0.5
		c-0.4,0-0.8-0.1-1.1-0.4c-0.3-0.3-0.5-0.7-0.5-1.1c0-0.5,0.2-0.9,0.5-1.2c0.3-0.3,0.7-0.5,1.1-0.5c0.4,0,0.8,0.1,1.1,0.4
		C98.6,4,98.8,4.3,98.8,4.8z"/>
	<path class="st0" d="M99.3,10.7l0.4-2.2h1.9l0.5-3.2h2.6l-0.5,3.2h2.4l-0.4,2.2h-2.4l-0.9,5.1c0,0.2-0.1,0.4-0.1,0.6
		c0,0.4,0.1,0.7,0.3,0.8s0.5,0.2,0.9,0.2c0.2,0,0.4,0,0.5,0c0.2,0,0.3-0.1,0.5-0.1l-0.2,2c-0.2,0.1-0.5,0.2-0.8,0.2
		c-0.3,0.1-0.6,0.1-0.8,0.1c-1.1,0-2-0.2-2.4-0.7c-0.5-0.5-0.7-1.1-0.7-1.8c0-0.2,0-0.4,0-0.7s0.1-0.5,0.1-0.7l0.9-5L99.3,10.7
		L99.3,10.7z"/>
	<path class="st0" d="M29,41.3h-3.1l-3-6.8h-2.1l-1.2,6.8h-2.7l2.8-15.9h4.7c1.8,0,3.1,0.4,4.1,1.1c1,0.7,1.4,1.7,1.4,3
		c0,1.3-0.4,2.3-1.1,3.1c-0.8,0.8-1.8,1.3-3.1,1.6L29,41.3z M23.2,32.3c1.2,0,2.2-0.2,2.8-0.6c0.7-0.4,1-1,1-1.9
		c0-0.8-0.3-1.3-0.8-1.6c-0.6-0.3-1.3-0.5-2.2-0.5h-2l-0.8,4.5H23.2z"/>
	<path class="st0" d="M33.2,36.8c0,0.1,0,0.2,0,0.2c0,0.4,0.1,0.7,0.2,1s0.3,0.6,0.6,0.8c0.3,0.2,0.6,0.4,0.9,0.5
		c0.3,0.1,0.7,0.2,1.1,0.2c0.7,0,1.3-0.1,1.8-0.4c0.5-0.3,0.9-0.6,1.3-1l1.5,1.4c-1.3,1.4-3,2.2-4.9,2.2c-0.7,0-1.4-0.1-2-0.3
		c-0.6-0.2-1.1-0.5-1.6-0.9c-0.5-0.4-0.8-0.9-1.1-1.5c-0.3-0.6-0.4-1.3-0.4-2c0-0.9,0.2-1.8,0.5-2.6c0.3-0.8,0.8-1.5,1.3-2.1
		c0.6-0.6,1.2-1.1,2-1.4c0.8-0.3,1.6-0.5,2.5-0.5c0.6,0,1.2,0.1,1.8,0.3c0.5,0.2,1,0.5,1.4,0.8s0.7,0.8,0.9,1.4s0.3,1.2,0.3,1.9
		c0,0.2,0,0.6-0.1,1c0,0.4-0.1,0.8-0.2,1.2L33.2,36.8L33.2,36.8z M39.1,34.9c0-0.1,0-0.2,0-0.3c0-0.1,0-0.2,0-0.3
		c0-0.6-0.2-1.1-0.6-1.5c-0.4-0.4-1-0.6-1.7-0.6c-0.5,0-0.9,0.1-1.3,0.2s-0.7,0.4-1,0.6S34,33.7,33.8,34c-0.2,0.3-0.3,0.6-0.4,0.9
		H39.1z"/>
	<path class="st0" d="M48.4,41.3h-2.8l-2.1-10.8h2.8l1.3,7.9h0l4.5-7.9h2.8L48.4,41.3z"/>
	<path class="st0" d="M54.5,41.3l1.9-10.8h2.7l-1.9,10.8H54.5z M59.9,26.8c0,0.4-0.2,0.8-0.5,1.1c-0.3,0.3-0.7,0.5-1.1,0.5
		c-0.4,0-0.8-0.1-1.1-0.4c-0.3-0.3-0.5-0.7-0.5-1.1c0-0.5,0.2-0.9,0.5-1.2c0.3-0.3,0.7-0.5,1.1-0.5c0.4,0,0.8,0.1,1.1,0.4
		C59.8,26,59.9,26.3,59.9,26.8z"/>
	<path class="st0" d="M63.2,36.8c0,0.1,0,0.2,0,0.2c0,0.4,0.1,0.7,0.2,1s0.3,0.6,0.6,0.8c0.3,0.2,0.6,0.4,0.9,0.5
		c0.3,0.1,0.7,0.2,1.1,0.2c0.7,0,1.3-0.1,1.8-0.4c0.5-0.3,0.9-0.6,1.3-1l1.5,1.4c-1.3,1.4-3,2.2-4.9,2.2c-0.7,0-1.4-0.1-2-0.3
		c-0.6-0.2-1.1-0.5-1.6-0.9c-0.5-0.4-0.8-0.9-1.1-1.5c-0.3-0.6-0.4-1.3-0.4-2c0-0.9,0.2-1.8,0.5-2.6s0.8-1.5,1.3-2.1
		c0.6-0.6,1.2-1.1,2-1.4c0.8-0.3,1.6-0.5,2.5-0.5c0.6,0,1.2,0.1,1.8,0.3c0.5,0.2,1,0.5,1.4,0.8s0.7,0.8,0.9,1.4s0.3,1.2,0.3,1.9
		c0,0.2,0,0.6-0.1,1c0,0.4-0.1,0.8-0.2,1.2L63.2,36.8L63.2,36.8z M69.1,34.9c0-0.1,0-0.2,0-0.3c0-0.1,0-0.2,0-0.3
		c0-0.6-0.2-1.1-0.6-1.5c-0.4-0.4-1-0.6-1.7-0.6c-0.5,0-0.9,0.1-1.3,0.2s-0.7,0.4-1,0.6S64,33.7,63.8,34c-0.2,0.3-0.3,0.6-0.4,0.9
		H69.1z"/>
	<path class="st0" d="M85.3,41.3h-2.7l-1-7.6h0l-4,7.6h-2.7l-1.5-10.8h2.8l0.7,7.8h0l3.9-7.8h2.8l0.9,7.8h0l3.9-7.8h2.8L85.3,41.3z"
		/>
</g>
</svg>
