<svg xmlns="http://www.w3.org/2000/svg" xmlns:xlink="http://www.w3.org/1999/xlink" width="563.68" height="100" viewBox="0 0 563.68 100"><defs><clipPath id="a"><path d="M70.15.5a1.92,1.92,0,0,0-1.73,0L35.5,19.5a1.94,1.94,0,0,0-.86,1.5V59a1.91,1.91,0,0,1-.87,1.5L.87,79.5a.53.53,0,0,0,0,1l32.9,19a2,2,0,0,0,1.74,0l32.9-19a1.91,1.91,0,0,0,.87-1.5V41a1.94,1.94,0,0,1,.86-1.5l32.91-19c.48-.28.48-.73,0-1Z" fill="none"/></clipPath></defs><path d="M112.47,74.84,117,67.22a22.75,22.75,0,0,0,13.83,5.55c4.56,0,6.71-1.74,6.71-4.23,0-6.54-23.68-1.16-23.68-16.89,0-6.71,5.79-12.59,16.39-12.59a25.46,25.46,0,0,1,16.07,5.47L142.12,52a17.27,17.27,0,0,0-11.85-4.64c-3.8,0-6.29,1.66-6.29,3.9,0,5.88,23.77.91,23.77,17.06,0,7.37-6.3,12.75-17.39,12.75C123.4,81.05,116.69,78.73,112.47,74.84Z" fill="#06a9db"/><path d="M180.9,80.06V75a19,19,0,0,1-14.08,6c-8.77,0-12.91-4.8-12.91-12.59V40.06h10.51V64.32c0,5.55,2.9,7.37,7.37,7.37a11.76,11.76,0,0,0,9.11-4.55V40.06h10.52v40Z" fill="#06a9db"/><path d="M210.8,74.92V95.29H200.29V40.06H210.8v5a15.48,15.48,0,0,1,12.34-6c10.27,0,17.72,7.62,17.72,20.95s-7.45,21-17.72,21A15.41,15.41,0,0,1,210.8,74.92ZM230,60c0-6.87-4.14-11.59-10.19-11.59a11.66,11.66,0,0,0-9,4.55V67.05a11.85,11.85,0,0,0,9,4.64C225.88,71.69,230,67,230,60Z" fill="#06a9db"/><path d="M245.13,60c0-11.59,8.62-20.95,20.71-20.95s20,8.95,20,21.95v2.48H256.15c.74,4.89,4.72,8.95,11.51,8.95,3.4,0,8-1.41,10.6-3.9l4.72,7c-4,3.64-10.27,5.55-16.48,5.55C254.33,81.05,245.13,72.85,245.13,60Zm20.71-12.34c-6.54,0-9.36,4.56-9.77,8.53h19.7C275.44,52.4,272.79,47.67,265.84,47.67Z" fill="#06a9db"/><path d="M292.15,80.06v-40h10.52v5.38c2.9-3.48,7.78-6.38,12.75-6.38V49.33a13.71,13.71,0,0,0-2.9-.25c-3.47,0-8.11,2-9.85,4.56V80.06Z" fill="#06a9db"/><path d="M369.68,80.06V54.8c0-3.73-1.66-6.38-6-6.38a10.61,10.61,0,0,0-8.28,4.64v27h-10.6V54.8c0-3.73-1.65-6.38-6-6.38-3.64,0-6.71,2.48-8.28,4.64v27H320.07v-40h10.52v5.13a17.9,17.9,0,0,1,13.08-6.13c5.88,0,9.69,2.73,11.1,7.21a17.15,17.15,0,0,1,13.75-7.21c7.37,0,11.76,3.89,11.76,12.09V80.06Z" fill="#06a9db"/><path d="M386.76,60c0-11.34,7.95-20.95,21.12-20.95s21.2,9.61,21.2,20.95-7.95,21-21.2,21S386.76,71.36,386.76,60Zm31.39,0c0-6.21-3.65-11.59-10.27-11.59S397.69,53.8,397.69,60s3.65,11.68,10.19,11.68S418.15,66.31,418.15,60Z" fill="#06a9db"/><path d="M462.62,80.06V55.87c0-5.55-2.9-7.45-7.38-7.45a11.69,11.69,0,0,0-9.1,4.64v27H435.62v-40h10.52v5.13a18.69,18.69,0,0,1,14-6.13c8.86,0,13.09,5,13.09,12.76V80.06Z" fill="#06a9db"/><path d="M479.56,60c0-11.59,8.62-20.95,20.71-20.95s20,8.95,20,21.95v2.48H490.58c.74,4.89,4.72,8.95,11.51,8.95,3.39,0,8-1.41,10.6-3.9l4.72,7c-4,3.64-10.27,5.55-16.48,5.55C488.76,81.05,479.56,72.85,479.56,60Zm20.71-12.34c-6.54,0-9.36,4.56-9.77,8.53h19.7C509.87,52.4,507.22,47.67,500.27,47.67Z" fill="#06a9db"/><path d="M525.67,90.32l4.72-7.53c2.9,3.48,7.79,4.88,12,4.88,6.79,0,10.77-4.63,10.77-10.26V73.26a19,19,0,0,1-14.08,6c-8.78,0-12.92-4.8-12.92-12.59V40.06h10.52V62.58c0,5.55,2.9,7.37,7.37,7.37a11.79,11.79,0,0,0,9.11-4.55V40.06h10.51V77.41c0,12-8.53,18.88-21.28,18.88C535.69,96.29,530.31,94.38,525.67,90.32Z" fill="#06a9db"/><polygon points="69.28 0 34.63 20 34.63 60 0 80 34.64 100 69.27 80 69.27 40 103.92 20 69.28 0" fill="#fff" opacity="0"/><g clip-path="url(#a)"><polygon points="69.28 0 34.64 20 69.28 40 103.92 20 69.28 0" fill="#06a9db"/><polygon points="34.64 60 0 80 34.64 100 69.28 80 34.64 60" fill="#06a9db"/><polygon points="34.64 20 69.28 40 69.28 80 34.64 60 34.64 20" fill="#06a9db" opacity="0.3"/></g></svg>