<svg xmlns="http://www.w3.org/2000/svg" viewBox="0 0 107.39 36.1"><defs><style>.cls-1{fill:#55efff;}</style></defs><title>Asset 19</title><g id="Layer_2" data-name="Layer 2"><g id="Layer_1-2" data-name="Layer 1"><path d="M9.55,13.15V7.6c0-.65-.15-1.25-1-1.25S7.65,7,7.65,7.6V28.5c0,.65.2,1.25.95,1.25s1-.6,1-1.25V22.35H17V27.6c0,5.45-2.95,8.5-8.5,8.5S0,33.05,0,27.6V8.5C0,3.05,3,0,8.5,0S17,3.05,17,8.5v4.65Z"/><path d="M30.25,20.4h-2.2V35.55H20.4V.55h7.65V14.1h2.2V.55H37.9v35H30.25Z"/><path d="M48.54,22.75v12.8H40.88V.55h8.71c5.55,0,8.2,2.7,8.2,7.5v6a5.56,5.56,0,0,1-2.95,5.35A6,6,0,0,1,57.79,25v6a23.3,23.3,0,0,0,.45,4.55h-7.6A18.25,18.25,0,0,1,50.19,31V24.25c0-.85-.3-1.5-1.2-1.5ZM50.19,15V8.1c0-.8-.3-1.5-1.2-1.5h-.45v9.9H49C49.94,16.5,50.19,15.8,50.19,15Z"/><path d="M60.41,27.35V8.75C60.41,3.1,63.51,0,69.26,0s8.8,3.1,8.8,8.75v18.6c0,5.6-3.1,8.75-8.8,8.75S60.41,33,60.41,27.35Zm10,.95V7.8c0-.8-.2-1.45-1.15-1.45s-1.2.65-1.2,1.45V28.3c0,.75.25,1.45,1.2,1.45S70.41,29.05,70.41,28.3Z"/><path d="M87.81,19.85v15.7h-7V.55H87L91.12,15.6V.55h7v35H92.27Z"/><path class="cls-1" d="M100.84,35.55v-7.4h6.55v7.4Z"/></g></g></svg>