<svg width="1359" height="97" viewBox="0 0 1359 97" fill="none" xmlns="http://www.w3.org/2000/svg" display="block">
    <path d="M769.111 47.69V46.65ZM1318.37 96.42C1345.21 96.42 1358.76 81.31 1358.76 63.58C1358.76 41.95 1344.04 36.35 1320.97 34.13C1313.02 33.35 1310.54 31.65 1310.54 28.53C1310.54 25.79 1312.63 24.1 1316.8 24.1C1321.23 24.1 1323.71 26.84 1323.97 30.88H1356.02C1354.46 9.51 1341.3 0 1316.93 0C1292.17 0 1277.71 13.03 1277.71 31.14C1277.71 50.95 1287.22 58.63 1314.98 61.63C1322.67 62.54 1325.53 64.11 1325.53 67.36C1325.53 70.23 1323.84 72.31 1318.36 72.31C1311.32 72.31 1308.85 68.79 1308.59 64.36H1275.88C1276.15 86.78 1291.78 96.42 1318.37 96.42ZM1217.38 68.15V27.89H1219.86C1231.07 27.89 1236.28 31.67 1236.28 47.44V48.48C1236.28 62.94 1231.85 68.16 1220.12 68.16H1217.38V68.15ZM1182.59 94.6H1221.29C1254.26 94.6 1272.5 78.44 1272.5 47.69V46.78C1272.5 16.29 1254.91 1.43001 1221.16 1.43001H1182.59V94.6V94.6ZM1087.6 94.6H1118.48V43.78L1144.28 94.6H1177.25V1.43001H1146.5V44.69L1126.3 1.43001H1087.6V94.6ZM1010.17 94.6H1081.71V68.15H1044.7V59.81H1072.32V35.83H1044.7V27.88H1079.75V1.43001H1010.17V94.6ZM890.881 94.6H921.631V45.08L939.351 94.6H951.081L969.581 45.08V94.6H1004.11V1.43001H960.331L947.691 38.7L935.441 1.43001H890.881V94.6ZM771.301 94.6H802.051V45.08L819.771 94.6H831.501L850.001 45.08V94.6H884.531V1.43001H840.751L828.111 38.7L815.861 1.43001H771.291V94.6H771.301ZM618.041 96.42C643.841 96.42 662.611 82.87 663.651 57.46H628.991C628.211 65.28 623.521 68.67 617.131 68.67C608.141 68.67 603.451 61.63 603.451 48.47V47.43C603.451 33.88 608.271 27.36 616.481 27.36C622.471 27.36 626.121 31.53 626.511 38.57H662.481C660.131 11.73 643.061 0 616.351 0C588.201 0 566.831 18.37 566.831 47.56V48.6C566.831 77.14 582.601 96.42 618.041 96.42ZM492.431 94.6H563.971V68.15H526.961V59.81H554.581V35.83H526.961V27.88H562.011V1.43001H492.431V94.6V94.6ZM433.531 43.26V27.23H437.701C444.221 27.23 447.211 29.44 447.211 34.53V35.05C447.211 40.52 444.211 43.26 437.441 43.26H433.531V43.26ZM399.001 94.6H433.531V65.02H435.481L449.941 94.6H486.031L466.871 57.46C475.211 52.9 480.551 45.6 480.551 33.35V32.83C480.551 12.63 467.651 1.43001 439.891 1.43001H398.971V94.6H399.001Z" fill="#00CD98"></path>
    <path d="M717.3 96.42C743.93 96.42 765.51 74.83 765.51 48.21C765.51 21.58 743.92 0 717.3 0C690.68 0 669.09 21.59 669.09 48.21C669.09 74.84 690.68 96.42 717.3 96.42Z" fill="#00CD98"></path>
    <path d="M741.911 29.1201C743.071 30.1301 743.201 31.8901 742.191 33.0501C742.181 33.0701 742.161 33.0801 742.151 33.1001L711.821 67.2101C710.781 68.3701 709.001 68.4801 707.831 67.4401C707.751 67.3701 707.671 67.2901 707.601 67.2101L692.441 50.1401C691.411 48.9601 691.521 47.1701 692.701 46.1401C693.881 45.1101 695.671 45.2201 696.701 46.4001L709.871 61.0901L738.091 29.2501C739.101 28.0901 740.861 27.9601 742.021 28.9701C742.041 28.9901 742.051 29.0001 742.071 29.0201L741.911 29.1201Z" fill="white"></path>
    <path d="M308.541 1.3999V52.2099L292.571 1.3999H276.781V94.5899H292.571V48.9299L306.841 94.5899H324.331V1.3999H308.541Z" fill="black"></path>
    <path d="M0 1.3999V94.5899H15.78V54.6399H30.42V38.8499H15.78V17.1799H38.49V1.3999H0Z" fill="black"></path>
    <path d="M205.002 1.3999H161.262V17.1799H175.242V94.5899H191.022V17.1799H205.002V1.3999Z" fill="black"></path>
    <path d="M339.781 1.3999V94.5899H378.271V78.8099H355.571V54.6399H370.211V38.8499H355.571V17.1799H378.271V1.3999H339.781Z" fill="black"></path>
    <path d="M154.021 94.5901H137.711L126.041 50.3401C126.041 50.3401 136.081 48.5301 136.081 37.8501V23.2901C136.081 19.9101 133.341 17.1801 129.971 17.1801H123.901V94.5901H108.111V1.39014H129.951C141.721 1.39014 151.301 10.6801 151.811 22.3301H151.861V37.5602H151.811C151.811 46.7601 148.801 53.3901 143.301 57.6101L154.021 94.5901Z" fill="black"></path>
    <path d="M246.052 1.40015V74.0002C246.052 77.3802 243.312 80.1201 239.922 80.1201C236.532 80.1201 233.792 77.3802 233.792 74.0002V1.40015H218.012V74.0002C218.012 86.1002 227.822 95.9102 239.922 95.9102C252.022 95.9102 261.832 86.1002 261.832 74.0002V1.40015H246.052V1.40015Z" fill="black"></path>
    <path d="M48.6914 21.9901V74.0001C48.6914 86.1001 58.5014 95.9101 70.6014 95.9101C82.7014 95.9101 92.5114 86.1001 92.5114 74.0001V21.9901C92.5114 9.89008 82.7014 0.0800781 70.6114 0.0800781H70.6014C58.5014 0.0800781 48.6914 9.89008 48.6914 21.9901ZM64.4814 74.0001V21.9901C64.4814 18.6101 67.2214 15.8601 70.6114 15.8601H70.6214C74.0014 15.8601 76.7314 18.5901 76.7314 21.9701V73.9901C76.7314 77.3701 73.9914 80.1201 70.6114 80.1201C67.2214 80.1201 64.4814 77.3801 64.4814 74.0001Z" fill="black"></path>
  </svg>
